<svg xmlns="http://www.w3.org/2000/svg" width="354" viewBox="0 0 354 141.75" height="141.75" version="1.0"><defs><clipPath id="a"><path d="M 7.269531 92.375 L 352.222656 92.375 L 352.222656 95.234375 L 7.269531 95.234375 Z M 7.269531 92.375"/></clipPath></defs><g fill="#1B1B1B"><g><g><path d="M 13.433594 -24.039062 C 17.324219 -24.039062 20.503906 -19.304688 20.503906 -13.433594 L 20.503906 -3.890625 C 20.503906 -1.34375 22.554688 0.707031 25.101562 0.707031 C 27.644531 0.707031 29.695312 -1.34375 29.695312 -3.890625 L 28.988281 -3.890625 C 28.988281 -2.546875 28.351562 -1.484375 27.574219 -1.484375 C 26.796875 -1.484375 26.160156 -2.546875 26.160156 -3.890625 L 26.160156 -13.433594 C 26.160156 -18.667969 22.484375 -23.121094 16.828125 -24.394531 C 22.484375 -25.667969 26.160156 -30.121094 26.160156 -35.351562 L 26.160156 -38.179688 C 26.160156 -44.402344 21.070312 -49.496094 13.433594 -49.496094 L 2.121094 -49.496094 L 2.121094 -48.789062 L 4.949219 -48.789062 L 4.949219 -0.707031 L 2.121094 -0.707031 L 2.121094 0 L 13.433594 0 L 13.433594 -0.707031 L 10.605469 -0.707031 L 10.605469 -24.039062 Z M 13.433594 -48.789062 C 17.324219 -48.789062 20.503906 -44.050781 20.503906 -38.179688 L 20.503906 -35.351562 C 20.503906 -29.484375 17.324219 -24.746094 13.433594 -24.746094 L 10.605469 -24.746094 L 10.605469 -48.789062 Z M 13.433594 -48.789062" transform="translate(113.783 61.084)"/></g></g></g><g fill="#1B1B1B"><g><g><path d="M -0.425781 0 L 6.363281 0 L 6.363281 -0.707031 L 3.675781 -0.707031 L 6.574219 -14.496094 L 16.6875 -14.496094 L 19.65625 -0.707031 L 16.828125 -0.707031 L 16.828125 0 L 28.28125 0 L 28.28125 -0.707031 L 25.453125 -0.707031 L 14.566406 -50.203125 L 13.433594 -50.203125 L 3.535156 -3.394531 C 3.183594 -1.769531 1.839844 -0.707031 -0.425781 -0.707031 Z M 11.523438 -37.6875 L 16.546875 -15.203125 L 6.71875 -15.203125 Z M 11.523438 -37.6875" transform="translate(155.99 61.084)"/></g></g></g><g fill="#1B1B1B"><g><g><path d="M 16.757812 -11.808594 L 8.625 -48.789062 L 11.523438 -48.789062 L 11.523438 -49.496094 L 0 -49.496094 L 0 -48.789062 L 2.828125 -48.789062 L 13.71875 0.707031 L 14.847656 0.707031 L 24.746094 -46.101562 C 25.101562 -47.726562 26.445312 -48.789062 28.707031 -48.789062 L 28.707031 -49.496094 L 21.777344 -49.496094 L 21.777344 -48.789062 L 24.605469 -48.789062 Z M 16.757812 -11.808594" transform="translate(196.288 61.084)"/></g></g></g><g fill="#1B1B1B"><g><g><path d="M 2.121094 -49.496094 L 2.121094 -48.789062 L 4.949219 -48.789062 L 4.949219 -0.707031 L 2.121094 -0.707031 L 2.121094 0 L 13.433594 0 L 13.433594 -0.707031 L 10.605469 -0.707031 L 10.605469 -48.789062 L 13.433594 -48.789062 L 13.433594 -49.496094 Z M 2.121094 -49.496094" transform="translate(236.586 61.084)"/></g></g></g><g fill="#1B1B1B"><g><g><path d="M 6.875 -1.890625 L 2.765625 -1.890625 L 1.984375 0 L -0.109375 0 L 3.828125 -8.84375 L 5.84375 -8.84375 L 9.796875 0 L 7.65625 0 Z M 6.21875 -3.453125 L 4.828125 -6.828125 L 3.421875 -3.453125 Z M 6.21875 -3.453125" transform="translate(111.138 134.556)"/></g></g></g><g fill="#1B1B1B"><g><g><path d="M 1.046875 -8.84375 L 3.09375 -8.84375 L 3.09375 -1.671875 L 7.53125 -1.671875 L 7.53125 0 L 1.046875 0 Z M 1.046875 -8.84375" transform="translate(123.966 134.556)"/></g></g></g><g fill="#1B1B1B"><g><g><path d="M 2.875 -7.171875 L 0.046875 -7.171875 L 0.046875 -8.84375 L 7.75 -8.84375 L 7.75 -7.171875 L 4.921875 -7.171875 L 4.921875 0 L 2.875 0 Z M 2.875 -7.171875" transform="translate(134.749 134.556)"/></g></g></g><g fill="#1B1B1B"><g><g><path d="M 6.875 -1.890625 L 2.765625 -1.890625 L 1.984375 0 L -0.109375 0 L 3.828125 -8.84375 L 5.84375 -8.84375 L 9.796875 0 L 7.65625 0 Z M 6.21875 -3.453125 L 4.828125 -6.828125 L 3.421875 -3.453125 Z M 6.21875 -3.453125" transform="translate(145.708 134.556)"/></g></g></g><g fill="#1B1B1B"><g><g><path d="M 5.28125 0.15625 C 4.375 0.15625 3.554688 -0.0351562 2.828125 -0.421875 C 2.109375 -0.816406 1.539062 -1.363281 1.125 -2.0625 C 0.707031 -2.757812 0.5 -3.546875 0.5 -4.421875 C 0.5 -5.296875 0.707031 -6.078125 1.125 -6.765625 C 1.539062 -7.460938 2.109375 -8.003906 2.828125 -8.390625 C 3.554688 -8.785156 4.378906 -8.984375 5.296875 -8.984375 C 6.054688 -8.984375 6.742188 -8.847656 7.359375 -8.578125 C 7.984375 -8.316406 8.503906 -7.929688 8.921875 -7.421875 L 7.609375 -6.21875 C 7.015625 -6.90625 6.273438 -7.25 5.390625 -7.25 C 4.835938 -7.25 4.347656 -7.128906 3.921875 -6.890625 C 3.492188 -6.648438 3.160156 -6.3125 2.921875 -5.875 C 2.679688 -5.445312 2.5625 -4.960938 2.5625 -4.421875 C 2.5625 -3.867188 2.679688 -3.378906 2.921875 -2.953125 C 3.160156 -2.523438 3.492188 -2.191406 3.921875 -1.953125 C 4.347656 -1.710938 4.835938 -1.59375 5.390625 -1.59375 C 6.273438 -1.59375 7.015625 -1.941406 7.609375 -2.640625 L 8.921875 -1.421875 C 8.503906 -0.910156 7.984375 -0.519531 7.359375 -0.25 C 6.734375 0.0195312 6.039062 0.15625 5.28125 0.15625 Z M 5.28125 0.15625" transform="translate(165.267 134.556)"/></g></g></g><g fill="#1B1B1B"><g><g><path d="M 5.328125 0.15625 C 4.410156 0.15625 3.582031 -0.0390625 2.84375 -0.4375 C 2.113281 -0.832031 1.539062 -1.378906 1.125 -2.078125 C 0.707031 -2.773438 0.5 -3.554688 0.5 -4.421875 C 0.5 -5.285156 0.707031 -6.0625 1.125 -6.75 C 1.539062 -7.445312 2.113281 -7.992188 2.84375 -8.390625 C 3.582031 -8.785156 4.410156 -8.984375 5.328125 -8.984375 C 6.242188 -8.984375 7.066406 -8.785156 7.796875 -8.390625 C 8.535156 -7.992188 9.113281 -7.445312 9.53125 -6.75 C 9.945312 -6.0625 10.15625 -5.285156 10.15625 -4.421875 C 10.15625 -3.554688 9.945312 -2.773438 9.53125 -2.078125 C 9.113281 -1.378906 8.535156 -0.832031 7.796875 -0.4375 C 7.066406 -0.0390625 6.242188 0.15625 5.328125 0.15625 Z M 5.328125 -1.59375 C 5.847656 -1.59375 6.316406 -1.710938 6.734375 -1.953125 C 7.160156 -2.191406 7.492188 -2.523438 7.734375 -2.953125 C 7.972656 -3.378906 8.09375 -3.867188 8.09375 -4.421875 C 8.09375 -4.960938 7.972656 -5.445312 7.734375 -5.875 C 7.492188 -6.3125 7.160156 -6.648438 6.734375 -6.890625 C 6.316406 -7.128906 5.847656 -7.25 5.328125 -7.25 C 4.804688 -7.25 4.332031 -7.128906 3.90625 -6.890625 C 3.488281 -6.648438 3.160156 -6.3125 2.921875 -5.875 C 2.679688 -5.445312 2.5625 -4.960938 2.5625 -4.421875 C 2.5625 -3.867188 2.679688 -3.378906 2.921875 -2.953125 C 3.160156 -2.523438 3.488281 -2.191406 3.90625 -1.953125 C 4.332031 -1.710938 4.804688 -1.59375 5.328125 -1.59375 Z M 5.328125 -1.59375" transform="translate(177.678 134.556)"/></g></g></g><g fill="#1B1B1B"><g><g><path d="M 3.953125 0.15625 C 3.253906 0.15625 2.578125 0.0625 1.921875 -0.125 C 1.273438 -0.320312 0.753906 -0.570312 0.359375 -0.875 L 1.046875 -2.40625 C 1.421875 -2.132812 1.867188 -1.910156 2.390625 -1.734375 C 2.921875 -1.566406 3.445312 -1.484375 3.96875 -1.484375 C 4.539062 -1.484375 4.96875 -1.566406 5.25 -1.734375 C 5.53125 -1.910156 5.671875 -2.144531 5.671875 -2.4375 C 5.671875 -2.644531 5.585938 -2.816406 5.421875 -2.953125 C 5.253906 -3.097656 5.039062 -3.210938 4.78125 -3.296875 C 4.53125 -3.378906 4.1875 -3.472656 3.75 -3.578125 C 3.070312 -3.734375 2.519531 -3.890625 2.09375 -4.046875 C 1.664062 -4.210938 1.296875 -4.472656 0.984375 -4.828125 C 0.679688 -5.179688 0.53125 -5.648438 0.53125 -6.234375 C 0.53125 -6.742188 0.664062 -7.207031 0.9375 -7.625 C 1.21875 -8.039062 1.640625 -8.367188 2.203125 -8.609375 C 2.765625 -8.859375 3.445312 -8.984375 4.25 -8.984375 C 4.8125 -8.984375 5.363281 -8.914062 5.90625 -8.78125 C 6.445312 -8.644531 6.921875 -8.453125 7.328125 -8.203125 L 6.6875 -6.65625 C 5.875 -7.113281 5.054688 -7.34375 4.234375 -7.34375 C 3.671875 -7.34375 3.25 -7.25 2.96875 -7.0625 C 2.695312 -6.882812 2.5625 -6.644531 2.5625 -6.34375 C 2.5625 -6.039062 2.71875 -5.8125 3.03125 -5.65625 C 3.351562 -5.507812 3.835938 -5.367188 4.484375 -5.234375 C 5.148438 -5.066406 5.695312 -4.898438 6.125 -4.734375 C 6.5625 -4.578125 6.929688 -4.328125 7.234375 -3.984375 C 7.546875 -3.640625 7.703125 -3.175781 7.703125 -2.59375 C 7.703125 -2.082031 7.5625 -1.617188 7.28125 -1.203125 C 7 -0.785156 6.570312 -0.453125 6 -0.203125 C 5.4375 0.0351562 4.753906 0.15625 3.953125 0.15625 Z M 3.953125 0.15625" transform="translate(191.491 134.556)"/></g></g></g><g fill="#1B1B1B"><g><g><path d="M 2.875 -7.171875 L 0.046875 -7.171875 L 0.046875 -8.84375 L 7.75 -8.84375 L 7.75 -7.171875 L 4.921875 -7.171875 L 4.921875 0 L 2.875 0 Z M 2.875 -7.171875" transform="translate(202.703 134.556)"/></g></g></g><g fill="#1B1B1B"><g><g><path d="M 4.96875 0.15625 C 3.707031 0.15625 2.722656 -0.191406 2.015625 -0.890625 C 1.316406 -1.585938 0.96875 -2.585938 0.96875 -3.890625 L 0.96875 -8.84375 L 3.015625 -8.84375 L 3.015625 -3.96875 C 3.015625 -2.382812 3.671875 -1.59375 4.984375 -1.59375 C 5.628906 -1.59375 6.117188 -1.78125 6.453125 -2.15625 C 6.785156 -2.539062 6.953125 -3.144531 6.953125 -3.96875 L 6.953125 -8.84375 L 8.96875 -8.84375 L 8.96875 -3.890625 C 8.96875 -2.585938 8.617188 -1.585938 7.921875 -0.890625 C 7.222656 -0.191406 6.238281 0.15625 4.96875 0.15625 Z M 4.96875 0.15625" transform="translate(213.663 134.556)"/></g></g></g><g fill="#1B1B1B"><g><g><path d="M 6.671875 0 L 4.96875 -2.46875 L 3.09375 -2.46875 L 3.09375 0 L 1.046875 0 L 1.046875 -8.84375 L 4.875 -8.84375 C 5.65625 -8.84375 6.332031 -8.710938 6.90625 -8.453125 C 7.488281 -8.191406 7.9375 -7.816406 8.25 -7.328125 C 8.5625 -6.847656 8.71875 -6.28125 8.71875 -5.625 C 8.71875 -4.96875 8.554688 -4.398438 8.234375 -3.921875 C 7.921875 -3.453125 7.472656 -3.09375 6.890625 -2.84375 L 8.875 0 Z M 6.640625 -5.625 C 6.640625 -6.125 6.476562 -6.503906 6.15625 -6.765625 C 5.84375 -7.035156 5.378906 -7.171875 4.765625 -7.171875 L 3.09375 -7.171875 L 3.09375 -4.09375 L 4.765625 -4.09375 C 5.378906 -4.09375 5.84375 -4.226562 6.15625 -4.5 C 6.476562 -4.769531 6.640625 -5.144531 6.640625 -5.625 Z M 6.640625 -5.625" transform="translate(226.77 134.556)"/></g></g></g><g fill="#1B1B1B"><g><g><path d="M 6.875 -1.890625 L 2.765625 -1.890625 L 1.984375 0 L -0.109375 0 L 3.828125 -8.84375 L 5.84375 -8.84375 L 9.796875 0 L 7.65625 0 Z M 6.21875 -3.453125 L 4.828125 -6.828125 L 3.421875 -3.453125 Z M 6.21875 -3.453125" transform="translate(239.206 134.556)"/></g></g></g><g clip-path="url(#a)"><path fill="#1B1B1B" d="M 7.269531 92.375 L 352.222656 92.375 L 352.222656 95.234375 L 7.269531 95.234375 Z M 7.269531 92.375"/></g></svg>