<svg xmlns="http://www.w3.org/2000/svg" width="1230" viewBox="0 0 1230 693" height="693" version="1.0"><defs><clipPath id="a"><path d="M 0.886719 0 L 1229.113281 0 L 1229.113281 692 L 0.886719 692 Z M 0.886719 0"/></clipPath></defs><g clip-path="url(#a)"><path fill="#FFF" d="M 0.886719 0 L 1229.113281 0 L 1229.113281 699.492188 L 0.886719 699.492188 Z M 0.886719 0"/><path fill="#FFF" d="M 0.886719 0 L 1229.113281 0 L 1229.113281 692 L 0.886719 692 Z M 0.886719 0"/><path fill="#FFFFF2" d="M 0.886719 0 L 1229.113281 0 L 1229.113281 692 L 0.886719 692 Z M 0.886719 0"/></g><g fill="#D9D9D9"><g><g><path d="M 110.578125 -197.875 C 142.585938 -197.875 168.777344 -158.882812 168.777344 -110.578125 L 168.777344 -32.007812 C 168.777344 -11.058594 185.652344 5.820312 206.605469 5.820312 C 227.558594 5.820312 244.433594 -11.058594 244.433594 -32.007812 L 238.613281 -32.007812 C 238.613281 -20.953125 233.375 -12.222656 226.976562 -12.222656 C 220.574219 -12.222656 215.335938 -20.953125 215.335938 -32.007812 L 215.335938 -110.578125 C 215.335938 -153.644531 185.070312 -190.308594 138.511719 -200.785156 C 185.070312 -211.261719 215.335938 -247.925781 215.335938 -290.992188 L 215.335938 -314.273438 C 215.335938 -365.488281 173.433594 -407.390625 110.578125 -407.390625 L 17.460938 -407.390625 L 17.460938 -401.570312 L 40.738281 -401.570312 L 40.738281 -5.820312 L 17.460938 -5.820312 L 17.460938 0 L 110.578125 0 L 110.578125 -5.820312 L 87.296875 -5.820312 L 87.296875 -197.875 Z M 110.578125 -401.570312 C 142.585938 -401.570312 168.777344 -362.578125 168.777344 -314.273438 L 168.777344 -290.992188 C 168.777344 -242.6875 142.585938 -203.695312 110.578125 -203.695312 L 87.296875 -203.695312 L 87.296875 -401.570312 Z M 110.578125 -401.570312" transform="translate(50.355 414.37)"/></g></g></g><g fill="#D9D9D9"><g><g><path d="M -3.492188 0 L 52.378906 0 L 52.378906 -5.820312 L 30.261719 -5.820312 L 54.125 -119.308594 L 137.347656 -119.308594 L 161.792969 -5.820312 L 138.511719 -5.820312 L 138.511719 0 L 232.792969 0 L 232.792969 -5.820312 L 209.515625 -5.820312 L 119.890625 -413.210938 L 110.578125 -413.210938 L 29.097656 -27.933594 C 26.1875 -14.550781 15.132812 -5.820312 -3.492188 -5.820312 Z M 94.863281 -310.199219 L 136.183594 -125.128906 L 55.289062 -125.128906 Z M 94.863281 -310.199219" transform="translate(397.802 414.37)"/></g></g></g><g fill="#D9D9D9"><g><g><path d="M 137.929688 -97.191406 L 71.003906 -401.570312 L 94.863281 -401.570312 L 94.863281 -407.390625 L 0 -407.390625 L 0 -401.570312 L 23.28125 -401.570312 L 112.90625 5.820312 L 122.21875 5.820312 L 203.695312 -379.457031 C 206.605469 -392.839844 217.664062 -401.570312 236.285156 -401.570312 L 236.285156 -407.390625 L 179.25 -407.390625 L 179.25 -401.570312 L 202.53125 -401.570312 Z M 137.929688 -97.191406" transform="translate(729.535 414.37)"/></g></g></g><g fill="#D9D9D9"><g><g><path d="M 17.460938 -407.390625 L 17.460938 -401.570312 L 40.738281 -401.570312 L 40.738281 -5.820312 L 17.460938 -5.820312 L 17.460938 0 L 110.578125 0 L 110.578125 -5.820312 L 87.296875 -5.820312 L 87.296875 -401.570312 L 110.578125 -401.570312 L 110.578125 -407.390625 Z M 17.460938 -407.390625" transform="translate(1061.268 414.37)"/></g></g></g></svg>